<svg xmlns="http://www.w3.org/2000/svg" width="152.962" height="27.419" viewBox="0 0 152.962 27.419"><defs><style>.a{fill:#161615;}</style></defs><g transform="translate(-642.981 -483.173)"><path class="a" d="M652.593,516.288l-3.666-.8q-1.386-.308-1.386-1.294a1.388,1.388,0,0,1,.493-1.063,2.352,2.352,0,0,1,1.6-.447,3.289,3.289,0,0,1,2.018.586,2.2,2.2,0,0,1,.909,1.54l3.882-.77a5.129,5.129,0,0,0-2.2-3.3,7.621,7.621,0,0,0-4.483-1.263,6.944,6.944,0,0,0-4.575,1.417,4.542,4.542,0,0,0-1.71,3.666,3.837,3.837,0,0,0,1.125,2.8,6.137,6.137,0,0,0,3.219,1.571l3.143.647q1.694.37,1.695,1.386a1.29,1.29,0,0,1-.647,1.109,3.129,3.129,0,0,1-1.756.431q-2.9,0-3.173-2.1l-4.1.832a4.33,4.33,0,0,0,2.218,3.4,9.191,9.191,0,0,0,4.683,1.124,8.22,8.22,0,0,0,4.914-1.325,4.425,4.425,0,0,0,1.833-3.82,4,4,0,0,0-1.032-2.757A5.456,5.456,0,0,0,652.593,516.288Z" transform="translate(0 -19.96)"/><path class="a" d="M717.161,511.174a7.671,7.671,0,0,0-5.083-1.694,7.15,7.15,0,0,0-5.284,2.326,8.66,8.66,0,0,0-.015,11.661,7.156,7.156,0,0,0,5.3,2.31,7.842,7.842,0,0,0,5.083-1.663v1.2h4.067V509.942h-4.067Zm-1.325,9.782a4.265,4.265,0,0,1-3.05,1.279,4.14,4.14,0,0,1-3.1-1.248,4.582,4.582,0,0,1-1.217-3.343,4.635,4.635,0,0,1,1.217-3.358,4.113,4.113,0,0,1,3.1-1.263,4.239,4.239,0,0,1,3.05,1.294,4.448,4.448,0,0,1,1.325,3.327A4.4,4.4,0,0,1,715.836,520.956Z" transform="translate(-46.7 -19.96)"/><rect class="a" width="4.067" height="22.182" transform="translate(678.132 483.173)"/><path class="a" d="M823.318,509.48a7.683,7.683,0,0,0-5.653,2.295,8.653,8.653,0,0,0-.015,11.722,7.621,7.621,0,0,0,5.607,2.28,8.429,8.429,0,0,0,4.529-1.2,7.4,7.4,0,0,0,2.927-3.543l-3.636-.77a4.109,4.109,0,0,1-3.82,2.033,3.564,3.564,0,0,1-2.48-.97,4.548,4.548,0,0,1-1.371-2.6h11.707v-1.386a7.964,7.964,0,0,0-2.388-5.653A7.484,7.484,0,0,0,823.318,509.48Zm-3.79,6.377a3.439,3.439,0,0,1,1.433-2.095,4.128,4.128,0,0,1,2.357-.739,3.8,3.8,0,0,1,2.28.709,3.633,3.633,0,0,1,1.356,2.126Z" transform="translate(-130.8 -19.96)"/><path class="a" d="M894.705,516.288l-3.666-.8q-1.386-.308-1.386-1.294a1.388,1.388,0,0,1,.493-1.063,2.352,2.352,0,0,1,1.6-.447,3.289,3.289,0,0,1,2.018.586,2.2,2.2,0,0,1,.909,1.54l3.882-.77a5.128,5.128,0,0,0-2.2-3.3,7.621,7.621,0,0,0-4.483-1.263A6.945,6.945,0,0,0,887.3,510.9a4.542,4.542,0,0,0-1.71,3.666,3.837,3.837,0,0,0,1.124,2.8,6.138,6.138,0,0,0,3.219,1.571l3.142.647q1.694.37,1.694,1.386a1.29,1.29,0,0,1-.647,1.109,3.129,3.129,0,0,1-1.756.431q-2.9,0-3.173-2.1l-4.1.832a4.33,4.33,0,0,0,2.218,3.4,9.191,9.191,0,0,0,4.683,1.124,8.22,8.22,0,0,0,4.914-1.325,4.424,4.424,0,0,0,1.833-3.82,4,4,0,0,0-1.032-2.757A5.455,5.455,0,0,0,894.705,516.288Z" transform="translate(-183.702 -19.96)"/><path class="a" d="M960.028,509.48a7.672,7.672,0,0,0-5.083,1.694v-1.232h-4.067v20.611h4.067v-6.439a7.842,7.842,0,0,0,5.083,1.663,7.156,7.156,0,0,0,5.3-2.31,8.66,8.66,0,0,0-.015-11.661A7.149,7.149,0,0,0,960.028,509.48Zm2.388,11.507a4.14,4.14,0,0,1-3.1,1.248,4.266,4.266,0,0,1-3.05-1.279,4.4,4.4,0,0,1-1.325-3.312,4.448,4.448,0,0,1,1.325-3.327,4.24,4.24,0,0,1,3.05-1.294,4.114,4.114,0,0,1,3.1,1.263,4.635,4.635,0,0,1,1.217,3.358A4.582,4.582,0,0,1,962.416,520.987Z" transform="translate(-233.617 -19.96)"/><path class="a" d="M1033.99,513.52v-2.8h-4.067V526.09h4.067v-4.96q0-6.593,5.484-6.593h.893l.216-3.913a3.6,3.6,0,0,0-1.078-.123A6.425,6.425,0,0,0,1033.99,513.52Z" transform="translate(-293.593 -20.735)"/><path class="a" d="M1090.27,512.127a8.274,8.274,0,0,0-5.869-2.265,8.407,8.407,0,0,0-5.946,2.265,8.145,8.145,0,0,0,0,11.615,8.683,8.683,0,0,0,1.042.83,12.171,12.171,0,0,0,2.472-1.465,12.883,12.883,0,0,0,4.359-6.309s-2.518,4.831-6.069,6.815c.763-.426-.677-2.788.147-5.129,1.468-4.173,5.811-5.393,6.233-5.5a6.759,6.759,0,0,1,.971,7.607,6.537,6.537,0,0,1-6.025,3.764,14.6,14.6,0,0,0-1.545.561,7.48,7.48,0,0,0,4.362,1.094,8.275,8.275,0,0,0,5.869-2.264,8.181,8.181,0,0,0,0-11.615Z" transform="translate(-328.569 -20.25)"/><path class="a" d="M1164.276,518.2q0,5.3-3.82,5.3a2.835,2.835,0,0,1-2.264-.986,3.879,3.879,0,0,1-.847-2.619v-8.5h-4.067v9.366a6.54,6.54,0,0,0,1.694,4.667,5.845,5.845,0,0,0,4.467,1.8,6.541,6.541,0,0,0,4.837-1.849v1.386h4.067V511.395h-4.067Z" transform="translate(-387.188 -21.413)"/><path class="a" d="M1233.893,508.07a5.5,5.5,0,0,1-2.557.739q-2.249,0-2.249-2.649v-6.069h5.022v-3.327h-5.022v-4.652h-4.067v4.652h-3.3v3.327h3.3v6.377a6.076,6.076,0,0,0,1.6,4.606,6.172,6.172,0,0,0,4.436,1.525,8.518,8.518,0,0,0,4.005-1.14Z" transform="translate(-439.121 -6.782)"/></g></svg>